<svg width="19" height="19" viewBox="0 0 19 19" fill="none" xmlns="http://www.w3.org/2000/svg">
<path d="M14.772 17.8184C14.002 18.0459 13.092 18.1509 12.0245 18.1509H6.77448C5.70698 18.1509 4.79698 18.0459 4.02698 17.8184C4.21948 15.5434 6.55573 13.7496 9.39948 13.7496C12.2432 13.7496 14.5795 15.5434 14.772 17.8184Z" stroke="black" stroke-width="1.3" stroke-linecap="round" stroke-linejoin="round"/>
<path d="M12.025 0.649994H6.77502C2.40002 0.649994 0.650024 2.39999 0.650024 6.77499V12.025C0.650024 15.3325 1.64752 17.1437 4.02752 17.8175C4.22002 15.5425 6.55627 13.7487 9.40002 13.7487C12.2438 13.7487 14.58 15.5425 14.7725 17.8175C17.1525 17.1437 18.15 15.3325 18.15 12.025V6.77499C18.15 2.39999 16.4 0.649994 12.025 0.649994ZM9.40002 11.2987C7.66752 11.2987 6.26752 9.89001 6.26752 8.15751C6.26752 6.42501 7.66752 5.02499 9.40002 5.02499C11.1325 5.02499 12.5325 6.42501 12.5325 8.15751C12.5325 9.89001 11.1325 11.2987 9.40002 11.2987Z" stroke="black" stroke-width="1.3" stroke-linecap="round" stroke-linejoin="round"/>
<path d="M12.5322 8.15751C12.5322 9.89001 11.1322 11.2987 9.39971 11.2987C7.66721 11.2987 6.26721 9.89001 6.26721 8.15751C6.26721 6.42501 7.66721 5.02499 9.39971 5.02499C11.1322 5.02499 12.5322 6.42501 12.5322 8.15751Z" stroke="black" stroke-width="1.3" stroke-linecap="round" stroke-linejoin="round"/>
</svg>
